<?xml version="1.0" encoding="UTF-8"?>
<svg xmlns="http://www.w3.org/2000/svg" xmlns:xlink="http://www.w3.org/1999/xlink" width="32pt" height="32pt" viewBox="0 0 32 32" version="1.1">
<g id="surface1">
<path style=" stroke:none;fill-rule:nonzero;fill:rgb(100%,100%,100%);fill-opacity:1;" d="M 32 17.078125 C 32 12.625 27.316406 9.015625 21.539062 9.015625 C 21.433594 9.015625 21.332031 9.015625 21.234375 9.015625 C 23.472656 10.796875 24.855469 13.222656 24.855469 15.898438 C 24.855469 19.707031 22.0625 23.015625 17.96875 24.664062 C 19.082031 24.972656 20.285156 25.140625 21.542969 25.140625 C 23.894531 25.140625 26.066406 24.546875 27.816406 23.53125 L 31.609375 25.140625 L 30.132812 21.679688 C 31.3125 20.375 32 18.789062 32 17.078125 Z M 32 17.078125 "/>
<path style=" stroke:none;fill-rule:nonzero;fill:rgb(100%,100%,100%);fill-opacity:1;" d="M 20.054688 9.589844 C 17.933594 7.902344 14.960938 6.859375 11.675781 6.859375 C 5.230469 6.859375 0 10.890625 0 15.859375 C 0 17.769531 0.769531 19.542969 2.085938 20.996094 L 0.4375 24.863281 L 4.671875 23.0625 C 6.625 24.195312 9.046875 24.863281 11.675781 24.863281 C 13.628906 24.863281 15.464844 24.496094 17.082031 23.84375 C 20.808594 22.339844 23.355469 19.328125 23.355469 15.859375 C 23.355469 13.421875 22.097656 11.207031 20.054688 9.589844 Z M 20.054688 9.589844 "/>
</g>
</svg>
