<?xml version="1.0" encoding="UTF-8"?>
<svg xmlns="http://www.w3.org/2000/svg" xmlns:xlink="http://www.w3.org/1999/xlink" width="10pt" height="10pt" viewBox="0 0 10 10" version="1.1">
<g id="surface1">
<path style=" stroke:none;fill-rule:nonzero;fill:rgb(100%,100%,100%);fill-opacity:1;" d="M 6.101562 5 L 9.839844 1.261719 C 9.941406 1.15625 10 1.019531 10 0.875 C 10 0.726562 9.941406 0.589844 9.839844 0.488281 L 9.511719 0.160156 C 9.410156 0.0585938 9.273438 0 9.125 0 C 8.980469 0 8.84375 0.0585938 8.738281 0.160156 L 5 3.898438 L 1.261719 0.160156 C 1.160156 0.0585938 1.019531 0 0.875 0 C 0.726562 0 0.589844 0.0585938 0.488281 0.160156 L 0.160156 0.488281 C -0.0546875 0.699219 -0.0546875 1.046875 0.160156 1.261719 L 3.898438 5 L 0.160156 8.738281 C 0.0585938 8.84375 0 8.980469 0 9.125 C 0 9.273438 0.0585938 9.410156 0.160156 9.511719 L 0.488281 9.839844 C 0.589844 9.941406 0.726562 10 0.875 10 C 1.019531 10 1.160156 9.941406 1.261719 9.839844 L 5 6.101562 L 8.738281 9.839844 C 8.84375 9.941406 8.980469 10 9.125 10 C 9.273438 10 9.410156 9.941406 9.511719 9.839844 L 9.839844 9.511719 C 9.941406 9.410156 10 9.273438 10 9.125 C 10 8.980469 9.941406 8.84375 9.839844 8.738281 Z M 6.101562 5 "/>
</g>
</svg>
