<?xml version="1.0" encoding="UTF-8"?>
<svg xmlns="http://www.w3.org/2000/svg" xmlns:xlink="http://www.w3.org/1999/xlink" width="16pt" height="16pt" viewBox="0 0 16 16" version="1.1">
<g id="surface1">
<path style=" stroke:none;fill-rule:nonzero;fill:rgb(100%,100%,100%);fill-opacity:1;" d="M 15.046875 6.574219 L 2.136719 1.214844 C 1.59375 0.992188 0.980469 1.089844 0.535156 1.476562 C 0.0898438 1.859375 -0.0976562 2.453125 0.046875 3.023438 L 1.199219 7.53125 L 6.824219 7.53125 C 7.082031 7.53125 7.292969 7.742188 7.292969 8 C 7.292969 8.257812 7.082031 8.46875 6.824219 8.46875 L 1.199219 8.46875 L 0.046875 12.976562 C -0.0976562 13.546875 0.0898438 14.140625 0.535156 14.523438 C 0.980469 14.910156 1.59375 15.007812 2.136719 14.785156 L 15.046875 9.425781 C 15.636719 9.183594 16 8.636719 16 8 C 16 7.363281 15.636719 6.816406 15.046875 6.574219 Z M 15.046875 6.574219 "/>
</g>
</svg>
